# xmcd
#
# Track frame offsets:
#	150
#	17382
#	36371
#	55883
#	72539
#	94412
#	104983
#	114384
#	127865
#	143148
#	160251
#
# Disc length: 2523 seconds
#
# Revision: 0
# Processed by: cddbd v1.5.1PL0 Copyright (c) Steve Scherf et al.
# Submitted via: EasyCDDAExtractor 4.6.9.1
#
DISCID=9b09d90b
DTITLE=Gustav Myburgh - Walk Away
DYEAR=2005
DGENRE=
TTITLE0=Dokter Dokter
TTITLE1=Sweet Dreams
TTITLE2=Windharp
TTITLE3=Walk Away
TTITLE4=Song Vir Roxanne
TTITLE5=Donker Kamer
TTITLE6=Funny Society
TTITLE7=Milkyway
TTITLE8=Die Koffer
TTITLE9=1 Minute Mexican Noodle
TTITLE10=Enhanced Multimedia Video
EXTD=
EXTT0=
EXTT1=
EXTT2=
EXTT3=
EXTT4=
EXTT5=
EXTT6=
EXTT7=
EXTT8=
EXTT9=
EXTT10=
PLAYORDER=
